<svg width="23" height="23" viewBox="0 0 23 23" fill="none" xmlns="http://www.w3.org/2000/svg">
<path d="M21.4628 16.5977L18.2687 13.4023C17.8398 12.9756 17.2654 12.7404 16.6516 12.7404C16.0129 12.7404 15.4098 12.9919 14.9538 13.4482L13.7104 14.6913C12.7443 14.1543 11.4602 13.4157 10.1271 12.0825C8.79544 10.7504 8.05677 9.47009 7.51703 8.49875L8.76153 7.25517C9.68679 6.32798 9.70571 4.84049 8.80385 3.93946L5.61047 0.745981C5.18271 0.317039 4.60832 0.0808105 3.99297 0.0808105C3.36848 0.0808105 2.77773 0.321245 2.32438 0.758871C2.05012 0.979742 0.673792 2.19471 0.160835 4.70035C-0.557359 8.20749 1.09277 11.5819 5.85648 16.3475C11.1779 21.6673 15.7209 22.0808 16.9865 22.0808C17.25 22.0808 17.4089 22.0645 17.4513 22.0596C19.9331 21.7687 20.8217 20.6665 21.4705 19.8618C22.3112 18.8188 22.3083 17.4464 21.4628 16.5977ZM20.4029 19.0011C19.7931 19.7575 19.2171 20.4718 17.2918 20.6975C17.2908 20.6976 17.1855 20.7094 16.9865 20.7094C15.8542 20.7094 11.7748 20.3249 6.82617 15.3778C2.43317 10.983 0.89128 7.96915 1.50425 4.97534C1.95166 2.78985 3.13948 1.86094 3.18564 1.82565L3.2266 1.79539L3.26253 1.75937C3.46082 1.56126 3.72018 1.45211 3.99288 1.45211C4.24118 1.45211 4.47083 1.54517 4.64013 1.71503L7.83425 4.90924C8.20176 5.27638 8.1822 5.8942 7.79119 6.28602L6.38379 7.69224L6.36066 7.71647C5.99388 8.12045 6.03703 8.66641 6.23907 9.02194C6.82205 10.074 7.62061 11.5149 9.15719 13.0519C10.6887 14.5834 12.1274 15.3813 13.1766 15.9632C13.2816 16.0221 13.4984 16.1211 13.7699 16.1211C14.0904 16.1211 14.3847 15.9854 14.6025 15.7381L15.9234 14.4176C16.1206 14.2204 16.3791 14.1117 16.6514 14.1117C16.9003 14.1117 17.1311 14.205 17.3 14.373L20.492 17.5663C20.8974 17.9732 20.73 18.5953 20.4029 19.0011Z" fill="white"/>
<path d="M13.3883 3.44055C14.5664 3.57612 15.9536 4.28975 16.9223 5.25852C17.9001 6.23626 18.6154 7.63754 18.7446 8.82847C18.7827 9.17979 19.0798 9.44016 19.4254 9.44016C19.4501 9.44016 19.4751 9.43879 19.5002 9.43614C19.8766 9.39527 20.1487 9.05702 20.1078 8.68055C19.9445 7.17514 19.0954 5.49237 17.892 4.28892C16.6999 3.09672 15.0343 2.24971 13.5451 2.0783C13.1691 2.03469 12.8289 2.30493 12.7856 2.68103C12.7422 3.05713 13.012 3.39722 13.3883 3.44055Z" fill="white"/>
<path d="M12.7475 6.31279C13.3847 6.3862 14.2665 6.85884 14.8442 7.43652C15.4268 8.01923 15.9004 8.90948 15.9701 9.55353C16.0083 9.90495 16.3054 10.1653 16.6509 10.1653C16.6756 10.1653 16.7006 10.1639 16.7256 10.1613C17.1021 10.1204 17.3743 9.78217 17.3334 9.40571C17.2142 8.30611 16.4842 7.13731 15.8137 6.46683C15.1493 5.8023 13.9919 5.07579 12.9043 4.95045C12.5277 4.90666 12.188 5.17699 12.1447 5.55309C12.1014 5.92928 12.3713 6.26946 12.7475 6.31279Z" fill="white"/>
</svg>
